<?xml version="1.0" encoding="utf-8" standalone="no"?>
<!DOCTYPE svg PUBLIC "-//W3C//DTD SVG 1.1//EN"
  "http://www.w3.org/Graphics/SVG/1.1/DTD/svg11.dtd">
<svg xmlns:xlink="http://www.w3.org/1999/xlink" width="509.445625pt" height="375.66125pt" viewBox="0 0 509.445625 375.66125" xmlns="http://www.w3.org/2000/svg" version="1.1">
 <metadata>
  <rdf:RDF xmlns:dc="http://purl.org/dc/elements/1.1/" xmlns:cc="http://creativecommons.org/ns#" xmlns:rdf="http://www.w3.org/1999/02/22-rdf-syntax-ns#">
   <cc:Work>
    <dc:type rdf:resource="http://purl.org/dc/dcmitype/StillImage"/>
    <dc:date>2022-07-03T12:55:30.417355</dc:date>
    <dc:format>image/svg+xml</dc:format>
    <dc:creator>
     <cc:Agent>
      <dc:title>Matplotlib v3.5.2, https://matplotlib.org/</dc:title>
     </cc:Agent>
    </dc:creator>
   </cc:Work>
  </rdf:RDF>
 </metadata>
 <defs>
  <style type="text/css">*{stroke-linejoin: round; stroke-linecap: butt}</style>
 </defs>
 <g id="figure_1">
  <g id="patch_1">
   <path d="M 0 375.66125 
L 509.445625 375.66125 
L 509.445625 0 
L 0 0 
z
" style="fill: #ffffff"/>
  </g>
  <g id="axes_1">
   <g id="patch_2">
    <path d="M 55.845625 333.36 
L 502.245625 333.36 
L 502.245625 7.2 
L 55.845625 7.2 
z
" style="fill: #eaeaf2"/>
   </g>
   <g id="matplotlib.axis_1">
    <g id="xtick_1">
     <g id="line2d_1">
      <path d="M 75.323271 333.36 
L 75.323271 7.2 
" clip-path="url(#p9a7279e43b)" style="fill: none; stroke: #ffffff; stroke-linecap: round"/>
     </g>
     <g id="line2d_2"/>
     <g id="text_1">
      <!-- 0 -->
      <g style="fill: #262626" transform="translate(71.708662 347.780938)scale(0.13 -0.13)">
       <defs>
        <path id="LiberationSans-30" d="M 3309 2203 
Q 3309 1569 3189 1136 
Q 3069 703 2861 436 
Q 2653 169 2372 53 
Q 2091 -63 1772 -63 
Q 1450 -63 1172 53 
Q 894 169 689 434 
Q 484 700 367 1133 
Q 250 1566 250 2203 
Q 250 2869 367 3305 
Q 484 3741 690 4000 
Q 897 4259 1178 4364 
Q 1459 4469 1791 4469 
Q 2106 4469 2382 4364 
Q 2659 4259 2865 4000 
Q 3072 3741 3190 3305 
Q 3309 2869 3309 2203 
z
M 2738 2203 
Q 2738 2728 2675 3076 
Q 2613 3425 2491 3633 
Q 2369 3841 2192 3927 
Q 2016 4013 1791 4013 
Q 1553 4013 1372 3925 
Q 1191 3838 1067 3630 
Q 944 3422 881 3073 
Q 819 2725 819 2203 
Q 819 1697 883 1350 
Q 947 1003 1070 792 
Q 1194 581 1372 489 
Q 1550 397 1778 397 
Q 2000 397 2178 489 
Q 2356 581 2479 792 
Q 2603 1003 2670 1350 
Q 2738 1697 2738 2203 
z
" transform="scale(0.015625)"/>
       </defs>
       <use xlink:href="#LiberationSans-30"/>
      </g>
     </g>
    </g>
    <g id="xtick_2">
     <g id="line2d_3">
      <path d="M 156.64956 333.36 
L 156.64956 7.2 
" clip-path="url(#p9a7279e43b)" style="fill: none; stroke: #ffffff; stroke-linecap: round"/>
     </g>
     <g id="line2d_4"/>
     <g id="text_2">
      <!-- 1 -->
      <g style="fill: #262626" transform="translate(153.034951 347.780938)scale(0.13 -0.13)">
       <defs>
        <path id="LiberationSans-31" d="M 488 0 
L 488 478 
L 1609 478 
L 1609 3866 
L 616 3156 
L 616 3688 
L 1656 4403 
L 2175 4403 
L 2175 478 
L 3247 478 
L 3247 0 
L 488 0 
z
" transform="scale(0.015625)"/>
       </defs>
       <use xlink:href="#LiberationSans-31"/>
      </g>
     </g>
    </g>
    <g id="xtick_3">
     <g id="line2d_5">
      <path d="M 237.975849 333.36 
L 237.975849 7.2 
" clip-path="url(#p9a7279e43b)" style="fill: none; stroke: #ffffff; stroke-linecap: round"/>
     </g>
     <g id="line2d_6"/>
     <g id="text_3">
      <!-- 2 -->
      <g style="fill: #262626" transform="translate(234.36124 347.780938)scale(0.13 -0.13)">
       <defs>
        <path id="LiberationSans-32" d="M 322 0 
L 322 397 
Q 481 763 711 1042 
Q 941 1322 1194 1548 
Q 1447 1775 1695 1969 
Q 1944 2163 2144 2356 
Q 2344 2550 2467 2762 
Q 2591 2975 2591 3244 
Q 2591 3431 2534 3573 
Q 2478 3716 2372 3812 
Q 2266 3909 2117 3957 
Q 1969 4006 1788 4006 
Q 1619 4006 1470 3959 
Q 1322 3913 1206 3819 
Q 1091 3725 1017 3586 
Q 944 3447 922 3263 
L 347 3316 
Q 375 3553 478 3762 
Q 581 3972 762 4130 
Q 944 4288 1198 4378 
Q 1453 4469 1788 4469 
Q 2116 4469 2372 4391 
Q 2628 4313 2804 4159 
Q 2981 4006 3075 3781 
Q 3169 3556 3169 3263 
Q 3169 3041 3089 2841 
Q 3009 2641 2876 2459 
Q 2744 2278 2569 2109 
Q 2394 1941 2203 1780 
Q 2013 1619 1819 1461 
Q 1625 1303 1454 1143 
Q 1284 984 1150 820 
Q 1016 656 941 478 
L 3238 478 
L 3238 0 
L 322 0 
z
" transform="scale(0.015625)"/>
       </defs>
       <use xlink:href="#LiberationSans-32"/>
      </g>
     </g>
    </g>
    <g id="xtick_4">
     <g id="line2d_7">
      <path d="M 319.302138 333.36 
L 319.302138 7.2 
" clip-path="url(#p9a7279e43b)" style="fill: none; stroke: #ffffff; stroke-linecap: round"/>
     </g>
     <g id="line2d_8"/>
     <g id="text_4">
      <!-- 3 -->
      <g style="fill: #262626" transform="translate(315.687529 347.780938)scale(0.13 -0.13)">
       <defs>
        <path id="LiberationSans-33" d="M 3278 1216 
Q 3278 913 3179 675 
Q 3081 438 2892 273 
Q 2703 109 2423 23 
Q 2144 -63 1784 -63 
Q 1375 -63 1095 39 
Q 816 141 634 308 
Q 453 475 362 689 
Q 272 903 244 1131 
L 825 1184 
Q 850 1009 917 865 
Q 984 722 1100 619 
Q 1216 516 1384 459 
Q 1553 403 1784 403 
Q 2209 403 2451 612 
Q 2694 822 2694 1234 
Q 2694 1478 2586 1626 
Q 2478 1775 2317 1858 
Q 2156 1941 1967 1969 
Q 1778 1997 1619 1997 
L 1300 1997 
L 1300 2484 
L 1606 2484 
Q 1766 2484 1937 2517 
Q 2109 2550 2251 2636 
Q 2394 2722 2486 2869 
Q 2578 3016 2578 3244 
Q 2578 3597 2370 3801 
Q 2163 4006 1753 4006 
Q 1381 4006 1151 3815 
Q 922 3625 884 3278 
L 319 3322 
Q 353 3613 478 3828 
Q 603 4044 795 4186 
Q 988 4328 1234 4398 
Q 1481 4469 1759 4469 
Q 2128 4469 2393 4376 
Q 2659 4284 2828 4126 
Q 2997 3969 3076 3756 
Q 3156 3544 3156 3303 
Q 3156 3109 3103 2940 
Q 3050 2772 2937 2637 
Q 2825 2503 2651 2406 
Q 2478 2309 2234 2259 
L 2234 2247 
Q 2500 2219 2697 2126 
Q 2894 2034 3022 1896 
Q 3150 1759 3214 1584 
Q 3278 1409 3278 1216 
z
" transform="scale(0.015625)"/>
       </defs>
       <use xlink:href="#LiberationSans-33"/>
      </g>
     </g>
    </g>
    <g id="xtick_5">
     <g id="line2d_9">
      <path d="M 400.628427 333.36 
L 400.628427 7.2 
" clip-path="url(#p9a7279e43b)" style="fill: none; stroke: #ffffff; stroke-linecap: round"/>
     </g>
     <g id="line2d_10"/>
     <g id="text_5">
      <!-- 4 -->
      <g style="fill: #262626" transform="translate(397.013818 347.780938)scale(0.13 -0.13)">
       <defs>
        <path id="LiberationSans-34" d="M 2753 997 
L 2753 0 
L 2222 0 
L 2222 997 
L 147 997 
L 147 1434 
L 2163 4403 
L 2753 4403 
L 2753 1441 
L 3372 1441 
L 3372 997 
L 2753 997 
z
M 2222 3769 
Q 2216 3753 2191 3708 
Q 2166 3663 2134 3606 
Q 2103 3550 2070 3492 
Q 2038 3434 2013 3397 
L 884 1734 
Q 869 1709 839 1668 
Q 809 1628 778 1586 
Q 747 1544 715 1503 
Q 684 1463 666 1441 
L 2222 1441 
L 2222 3769 
z
" transform="scale(0.015625)"/>
       </defs>
       <use xlink:href="#LiberationSans-34"/>
      </g>
     </g>
    </g>
    <g id="xtick_6">
     <g id="line2d_11">
      <path d="M 481.954716 333.36 
L 481.954716 7.2 
" clip-path="url(#p9a7279e43b)" style="fill: none; stroke: #ffffff; stroke-linecap: round"/>
     </g>
     <g id="line2d_12"/>
     <g id="text_6">
      <!-- 5 -->
      <g style="fill: #262626" transform="translate(478.340107 347.780938)scale(0.13 -0.13)">
       <defs>
        <path id="LiberationSans-35" d="M 3291 1434 
Q 3291 1103 3191 828 
Q 3091 553 2894 354 
Q 2697 156 2405 46 
Q 2113 -63 1728 -63 
Q 1381 -63 1123 18 
Q 866 100 687 242 
Q 509 384 404 575 
Q 300 766 256 984 
L 825 1050 
Q 859 925 921 808 
Q 984 691 1092 598 
Q 1200 506 1358 451 
Q 1516 397 1741 397 
Q 1959 397 2137 464 
Q 2316 531 2442 662 
Q 2569 794 2637 984 
Q 2706 1175 2706 1422 
Q 2706 1625 2640 1795 
Q 2575 1966 2453 2089 
Q 2331 2213 2154 2281 
Q 1978 2350 1753 2350 
Q 1613 2350 1494 2325 
Q 1375 2300 1273 2256 
Q 1172 2213 1089 2155 
Q 1006 2097 934 2034 
L 384 2034 
L 531 4403 
L 3034 4403 
L 3034 3925 
L 1044 3925 
L 959 2528 
Q 1109 2644 1334 2726 
Q 1559 2809 1869 2809 
Q 2197 2809 2459 2709 
Q 2722 2609 2906 2426 
Q 3091 2244 3191 1991 
Q 3291 1738 3291 1434 
z
" transform="scale(0.015625)"/>
       </defs>
       <use xlink:href="#LiberationSans-35"/>
      </g>
     </g>
    </g>
    <g id="text_7">
     <!-- t(ns) -->
     <g style="fill: #262626" transform="translate(264.046797 365.34875)scale(0.15 -0.15)">
      <defs>
       <path id="LiberationSans-74" d="M 1731 25 
Q 1603 -9 1470 -29 
Q 1338 -50 1163 -50 
Q 488 -50 488 716 
L 488 2972 
L 97 2972 
L 97 3381 
L 509 3381 
L 675 4138 
L 1050 4138 
L 1050 3381 
L 1675 3381 
L 1675 2972 
L 1050 2972 
L 1050 838 
Q 1050 594 1129 495 
Q 1209 397 1406 397 
Q 1488 397 1564 409 
Q 1641 422 1731 441 
L 1731 25 
z
" transform="scale(0.015625)"/>
       <path id="LiberationSans-28" d="M 397 1663 
Q 397 2097 462 2494 
Q 528 2891 668 3256 
Q 809 3622 1028 3965 
Q 1247 4309 1550 4638 
L 2094 4638 
Q 1800 4309 1586 3964 
Q 1372 3619 1234 3251 
Q 1097 2884 1030 2487 
Q 963 2091 963 1656 
Q 963 1222 1030 825 
Q 1097 428 1234 59 
Q 1372 -309 1586 -653 
Q 1800 -997 2094 -1325 
L 1550 -1325 
Q 1247 -997 1028 -653 
Q 809 -309 668 56 
Q 528 422 462 817 
Q 397 1213 397 1650 
L 397 1663 
z
" transform="scale(0.015625)"/>
       <path id="LiberationSans-6e" d="M 2578 0 
L 2578 2144 
Q 2578 2391 2542 2556 
Q 2506 2722 2425 2823 
Q 2344 2925 2211 2967 
Q 2078 3009 1881 3009 
Q 1681 3009 1520 2939 
Q 1359 2869 1245 2736 
Q 1131 2603 1068 2408 
Q 1006 2213 1006 1959 
L 1006 0 
L 444 0 
L 444 2659 
Q 444 2766 442 2883 
Q 441 3000 437 3104 
Q 434 3209 431 3284 
Q 428 3359 425 3381 
L 956 3381 
Q 959 3366 962 3297 
Q 966 3228 970 3139 
Q 975 3050 978 2958 
Q 981 2866 981 2803 
L 991 2803 
Q 1072 2950 1169 3069 
Q 1266 3188 1394 3270 
Q 1522 3353 1687 3398 
Q 1853 3444 2072 3444 
Q 2353 3444 2556 3375 
Q 2759 3306 2890 3162 
Q 3022 3019 3083 2792 
Q 3144 2566 3144 2253 
L 3144 0 
L 2578 0 
z
" transform="scale(0.015625)"/>
       <path id="LiberationSans-73" d="M 2969 934 
Q 2969 697 2876 511 
Q 2784 325 2609 198 
Q 2434 72 2179 4 
Q 1925 -63 1597 -63 
Q 1303 -63 1067 -17 
Q 831 28 653 128 
Q 475 228 354 392 
Q 234 556 178 794 
L 675 891 
Q 747 619 972 492 
Q 1197 366 1597 366 
Q 1778 366 1929 391 
Q 2081 416 2190 477 
Q 2300 538 2361 639 
Q 2422 741 2422 891 
Q 2422 1044 2350 1142 
Q 2278 1241 2150 1306 
Q 2022 1372 1839 1420 
Q 1656 1469 1438 1528 
Q 1234 1581 1034 1647 
Q 834 1713 673 1820 
Q 513 1928 413 2087 
Q 313 2247 313 2488 
Q 313 2950 642 3192 
Q 972 3434 1603 3434 
Q 2163 3434 2492 3237 
Q 2822 3041 2909 2606 
L 2403 2544 
Q 2375 2675 2300 2764 
Q 2225 2853 2119 2908 
Q 2013 2963 1880 2986 
Q 1747 3009 1603 3009 
Q 1222 3009 1040 2893 
Q 859 2778 859 2544 
Q 859 2406 926 2317 
Q 994 2228 1114 2167 
Q 1234 2106 1403 2061 
Q 1572 2016 1775 1966 
Q 1909 1931 2050 1892 
Q 2191 1853 2323 1798 
Q 2456 1744 2573 1670 
Q 2691 1597 2778 1494 
Q 2866 1391 2917 1253 
Q 2969 1116 2969 934 
z
" transform="scale(0.015625)"/>
       <path id="LiberationSans-29" d="M 1734 1650 
Q 1734 1213 1668 817 
Q 1603 422 1462 56 
Q 1322 -309 1103 -653 
Q 884 -997 581 -1325 
L 38 -1325 
Q 331 -997 545 -653 
Q 759 -309 896 59 
Q 1034 428 1101 825 
Q 1169 1222 1169 1656 
Q 1169 2091 1101 2487 
Q 1034 2884 896 3251 
Q 759 3619 545 3964 
Q 331 4309 38 4638 
L 581 4638 
Q 884 4309 1103 3965 
Q 1322 3622 1462 3256 
Q 1603 2891 1668 2494 
Q 1734 2097 1734 1663 
L 1734 1650 
z
" transform="scale(0.015625)"/>
      </defs>
      <use xlink:href="#LiberationSans-74"/>
      <use xlink:href="#LiberationSans-28" x="27.783203"/>
      <use xlink:href="#LiberationSans-6e" x="61.083984"/>
      <use xlink:href="#LiberationSans-73" x="116.699219"/>
      <use xlink:href="#LiberationSans-29" x="166.699219"/>
     </g>
    </g>
   </g>
   <g id="matplotlib.axis_2">
    <g id="ytick_1">
     <g id="line2d_13">
      <path d="M 55.845625 305.504811 
L 502.245625 305.504811 
" clip-path="url(#p9a7279e43b)" style="fill: none; stroke: #ffffff; stroke-linecap: round"/>
     </g>
     <g id="line2d_14"/>
     <g id="text_8">
      <!-- −0.1 -->
      <g style="fill: #262626" transform="translate(25.182813 310.21528)scale(0.13 -0.13)">
       <defs>
        <path id="LiberationSans-2212" d="M 316 1900 
L 316 2356 
L 3425 2356 
L 3425 1900 
L 316 1900 
z
" transform="scale(0.015625)"/>
        <path id="LiberationSans-2e" d="M 584 0 
L 584 684 
L 1194 684 
L 1194 0 
L 584 0 
z
" transform="scale(0.015625)"/>
       </defs>
       <use xlink:href="#LiberationSans-2212"/>
       <use xlink:href="#LiberationSans-30" x="58.398438"/>
       <use xlink:href="#LiberationSans-2e" x="114.013672"/>
       <use xlink:href="#LiberationSans-31" x="141.796875"/>
      </g>
     </g>
    </g>
    <g id="ytick_2">
     <g id="line2d_15">
      <path d="M 55.845625 242.735115 
L 502.245625 242.735115 
" clip-path="url(#p9a7279e43b)" style="fill: none; stroke: #ffffff; stroke-linecap: round"/>
     </g>
     <g id="line2d_16"/>
     <g id="text_9">
      <!-- 0.0 -->
      <g style="fill: #262626" transform="translate(32.775625 247.445583)scale(0.13 -0.13)">
       <use xlink:href="#LiberationSans-30"/>
       <use xlink:href="#LiberationSans-2e" x="55.615234"/>
       <use xlink:href="#LiberationSans-30" x="83.398438"/>
      </g>
     </g>
    </g>
    <g id="ytick_3">
     <g id="line2d_17">
      <path d="M 55.845625 179.965418 
L 502.245625 179.965418 
" clip-path="url(#p9a7279e43b)" style="fill: none; stroke: #ffffff; stroke-linecap: round"/>
     </g>
     <g id="line2d_18"/>
     <g id="text_10">
      <!-- 0.1 -->
      <g style="fill: #262626" transform="translate(32.775625 184.675887)scale(0.13 -0.13)">
       <use xlink:href="#LiberationSans-30"/>
       <use xlink:href="#LiberationSans-2e" x="55.615234"/>
       <use xlink:href="#LiberationSans-31" x="83.398438"/>
      </g>
     </g>
    </g>
    <g id="ytick_4">
     <g id="line2d_19">
      <path d="M 55.845625 117.195721 
L 502.245625 117.195721 
" clip-path="url(#p9a7279e43b)" style="fill: none; stroke: #ffffff; stroke-linecap: round"/>
     </g>
     <g id="line2d_20"/>
     <g id="text_11">
      <!-- 0.2 -->
      <g style="fill: #262626" transform="translate(32.775625 121.90619)scale(0.13 -0.13)">
       <use xlink:href="#LiberationSans-30"/>
       <use xlink:href="#LiberationSans-2e" x="55.615234"/>
       <use xlink:href="#LiberationSans-32" x="83.398438"/>
      </g>
     </g>
    </g>
    <g id="ytick_5">
     <g id="line2d_21">
      <path d="M 55.845625 54.426024 
L 502.245625 54.426024 
" clip-path="url(#p9a7279e43b)" style="fill: none; stroke: #ffffff; stroke-linecap: round"/>
     </g>
     <g id="line2d_22"/>
     <g id="text_12">
      <!-- 0.3 -->
      <g style="fill: #262626" transform="translate(32.775625 59.136493)scale(0.13 -0.13)">
       <use xlink:href="#LiberationSans-30"/>
       <use xlink:href="#LiberationSans-2e" x="55.615234"/>
       <use xlink:href="#LiberationSans-33" x="83.398438"/>
      </g>
     </g>
    </g>
    <g id="text_13">
     <!-- value -->
     <g style="fill: #262626" transform="translate(18.070312 188.208516)rotate(-90)scale(0.15 -0.15)">
      <defs>
       <path id="LiberationSans-76" d="M 1916 0 
L 1250 0 
L 22 3381 
L 622 3381 
L 1366 1181 
Q 1388 1113 1417 1014 
Q 1447 916 1478 809 
Q 1509 703 1536 604 
Q 1563 506 1581 441 
Q 1600 506 1629 604 
Q 1659 703 1690 806 
Q 1722 909 1755 1007 
Q 1788 1106 1813 1175 
L 2581 3381 
L 3178 3381 
L 1916 0 
z
" transform="scale(0.015625)"/>
       <path id="LiberationSans-61" d="M 1294 -63 
Q 784 -63 528 206 
Q 272 475 272 944 
Q 272 1278 398 1492 
Q 525 1706 729 1828 
Q 934 1950 1196 1997 
Q 1459 2044 1731 2050 
L 2491 2063 
L 2491 2247 
Q 2491 2456 2447 2603 
Q 2403 2750 2312 2840 
Q 2222 2931 2086 2973 
Q 1950 3016 1766 3016 
Q 1603 3016 1472 2992 
Q 1341 2969 1244 2908 
Q 1147 2847 1087 2742 
Q 1028 2638 1009 2478 
L 422 2531 
Q 453 2731 540 2898 
Q 628 3066 789 3187 
Q 950 3309 1192 3376 
Q 1434 3444 1778 3444 
Q 2416 3444 2737 3151 
Q 3059 2859 3059 2306 
L 3059 850 
Q 3059 600 3125 473 
Q 3191 347 3375 347 
Q 3422 347 3469 353 
Q 3516 359 3559 369 
L 3559 19 
Q 3453 -6 3348 -18 
Q 3244 -31 3125 -31 
Q 2966 -31 2852 11 
Q 2738 53 2666 139 
Q 2594 225 2556 351 
Q 2519 478 2509 647 
L 2491 647 
Q 2400 484 2292 353 
Q 2184 222 2040 130 
Q 1897 38 1714 -12 
Q 1531 -63 1294 -63 
z
M 1422 359 
Q 1691 359 1892 457 
Q 2094 556 2226 709 
Q 2359 863 2425 1044 
Q 2491 1225 2491 1391 
L 2491 1669 
L 1875 1656 
Q 1669 1653 1483 1626 
Q 1297 1600 1156 1522 
Q 1016 1444 933 1303 
Q 850 1163 850 934 
Q 850 659 998 509 
Q 1147 359 1422 359 
z
" transform="scale(0.015625)"/>
       <path id="LiberationSans-6c" d="M 431 0 
L 431 4638 
L 994 4638 
L 994 0 
L 431 0 
z
" transform="scale(0.015625)"/>
       <path id="LiberationSans-75" d="M 981 3381 
L 981 1238 
Q 981 991 1017 825 
Q 1053 659 1134 557 
Q 1216 456 1348 414 
Q 1481 372 1678 372 
Q 1878 372 2039 442 
Q 2200 513 2314 645 
Q 2428 778 2490 973 
Q 2553 1169 2553 1422 
L 2553 3381 
L 3116 3381 
L 3116 722 
Q 3116 616 3117 498 
Q 3119 381 3122 276 
Q 3125 172 3128 97 
Q 3131 22 3134 0 
L 2603 0 
Q 2600 16 2597 84 
Q 2594 153 2589 242 
Q 2584 331 2581 423 
Q 2578 516 2578 578 
L 2569 578 
Q 2488 431 2391 312 
Q 2294 194 2166 111 
Q 2038 28 1872 -17 
Q 1706 -63 1488 -63 
Q 1206 -63 1003 6 
Q 800 75 669 219 
Q 538 363 477 588 
Q 416 813 416 1128 
L 416 3381 
L 981 3381 
z
" transform="scale(0.015625)"/>
       <path id="LiberationSans-65" d="M 863 1572 
Q 863 1306 917 1082 
Q 972 859 1086 698 
Q 1200 538 1378 448 
Q 1556 359 1806 359 
Q 2172 359 2392 506 
Q 2613 653 2691 878 
L 3184 738 
Q 3131 597 3036 455 
Q 2941 313 2781 198 
Q 2622 84 2383 10 
Q 2144 -63 1806 -63 
Q 1056 -63 664 384 
Q 272 831 272 1713 
Q 272 2188 390 2517 
Q 509 2847 715 3053 
Q 922 3259 1197 3351 
Q 1472 3444 1784 3444 
Q 2209 3444 2495 3306 
Q 2781 3169 2954 2926 
Q 3128 2684 3201 2356 
Q 3275 2028 3275 1647 
L 3275 1572 
L 863 1572 
z
M 2694 2003 
Q 2647 2538 2422 2783 
Q 2197 3028 1775 3028 
Q 1634 3028 1479 2983 
Q 1325 2938 1194 2822 
Q 1063 2706 972 2507 
Q 881 2309 869 2003 
L 2694 2003 
z
" transform="scale(0.015625)"/>
      </defs>
      <use xlink:href="#LiberationSans-76"/>
      <use xlink:href="#LiberationSans-61" x="50"/>
      <use xlink:href="#LiberationSans-6c" x="105.615234"/>
      <use xlink:href="#LiberationSans-75" x="127.832031"/>
      <use xlink:href="#LiberationSans-65" x="183.447266"/>
     </g>
    </g>
   </g>
   <g id="line2d_23">
    <path d="M 76.136534 22.025455 
L 78.576323 52.456079 
L 79.389586 59.368007 
L 80.202849 63.427002 
L 81.016111 65.12156 
L 81.829374 65.231596 
L 83.4559 63.834238 
L 84.269163 63.538317 
L 85.082426 64.000591 
L 85.895689 65.354958 
L 86.708952 67.577431 
L 87.522215 70.522671 
L 89.14874 77.663168 
L 90.775266 84.945757 
L 92.401792 91.315469 
L 94.028318 96.687272 
L 98.094632 108.888465 
L 99.721158 114.669631 
L 101.347684 121.330262 
L 103.787472 132.71125 
L 107.040524 148.510049 
L 109.480313 159.078644 
L 119.239467 198.496507 
L 122.492519 209.730385 
L 125.74557 221.139153 
L 133.064936 247.947272 
L 138.757777 267.227211 
L 142.824091 281.426019 
L 144.450617 286.445197 
L 146.077143 290.718855 
L 147.703668 294.154264 
L 149.330194 296.825351 
L 150.95672 298.950127 
L 155.023034 303.807411 
L 156.64956 306.159879 
L 161.529137 313.920366 
L 163.155663 315.800045 
L 163.968926 316.481224 
L 164.782189 316.986052 
L 165.595452 317.324952 
L 166.408715 317.516488 
L 168.035241 317.556965 
L 170.475029 317.172255 
L 172.914818 316.832262 
L 174.541344 316.848486 
L 176.167869 317.112088 
L 178.607658 317.835648 
L 180.234184 318.3094 
L 181.86071 318.534545 
L 182.673973 318.49277 
L 183.487235 318.323307 
L 184.300498 318.014353 
L 185.113761 317.559895 
L 185.927024 316.95937 
L 187.55355 315.340867 
L 189.180076 313.235092 
L 190.806601 310.760327 
L 197.312705 300.322382 
L 198.93923 298.250828 
L 201.379019 295.616004 
L 206.258596 290.692747 
L 208.698385 287.887296 
L 211.951437 283.792326 
L 218.45754 275.128258 
L 222.523854 269.392746 
L 225.776906 264.368107 
L 228.216694 260.228938 
L 231.469746 254.237775 
L 236.349323 245.143367 
L 238.789112 241.146367 
L 240.415638 238.825661 
L 242.042164 236.809717 
L 243.668689 235.103596 
L 245.295215 233.697809 
L 246.921741 232.569784 
L 248.548267 231.68542 
L 250.174792 231.001997 
L 252.614581 230.250144 
L 256.680896 229.342684 
L 259.933947 228.568917 
L 262.373736 227.79505 
L 264.813524 226.77968 
L 267.253313 225.503832 
L 270.506365 223.47201 
L 276.199205 219.761236 
L 278.638994 218.460775 
L 281.078782 217.481702 
L 282.705308 217.033772 
L 284.331834 216.758725 
L 285.95836 216.659453 
L 287.584885 216.736202 
L 289.211411 216.98776 
L 290.837937 217.412323 
L 292.464463 218.008073 
L 294.090988 218.773433 
L 296.530777 220.236212 
L 298.970566 222.069237 
L 301.410354 224.252417 
L 303.850143 226.740331 
L 307.103195 230.385641 
L 313.609298 237.767418 
L 316.862349 241.094531 
L 320.115401 244.107465 
L 323.368452 246.80202 
L 325.808241 248.573068 
L 328.24803 250.05879 
L 329.874556 250.849236 
L 331.501081 251.451148 
L 333.127607 251.84554 
L 334.754133 252.021514 
L 336.380659 251.977748 
L 338.007184 251.722536 
L 339.63371 251.272728 
L 342.073499 250.286471 
L 344.513288 249.015648 
L 348.579602 246.557937 
L 353.459179 243.595744 
L 356.712231 241.882018 
L 359.15202 240.819777 
L 361.591808 239.98821 
L 364.031597 239.40946 
L 366.471386 239.090894 
L 368.911174 239.023683 
L 371.350963 239.183495 
L 374.604015 239.684563 
L 378.670329 240.618763 
L 388.429484 243.048452 
L 392.495798 243.745018 
L 395.74885 244.08467 
L 399.001901 244.226254 
L 403.068216 244.154284 
L 407.947793 243.798146 
L 425.026314 242.265283 
L 430.719154 242.131858 
L 437.225257 242.237959 
L 462.436407 242.978601 
L 473.008824 242.865266 
L 481.954716 242.717368 
L 481.954716 242.717368 
" clip-path="url(#p9a7279e43b)" style="fill: none; stroke: #4c72b0; stroke-width: 1.75; stroke-linecap: round"/>
   </g>
   <g id="line2d_24">
    <path d="M 76.136534 242.273731 
L 76.949797 241.152271 
L 77.76306 239.03557 
L 78.576323 235.855499 
L 79.389586 231.77035 
L 81.016111 222.010273 
L 83.4559 207.158602 
L 85.082426 198.984751 
L 86.708952 192.444238 
L 89.962003 180.622313 
L 91.588529 173.710284 
L 94.841581 159.225175 
L 96.468106 153.267974 
L 98.094632 148.623388 
L 99.721158 144.922122 
L 102.160947 139.700188 
L 104.600735 133.725027 
L 106.227261 129.826708 
L 107.040524 128.177399 
L 107.853787 126.812658 
L 108.66705 125.741543 
L 109.480313 124.928365 
L 111.106838 123.774022 
L 112.733364 122.648332 
L 114.35989 121.054854 
L 117.612941 117.254679 
L 118.426204 116.637721 
L 119.239467 116.287639 
L 120.05273 116.218045 
L 120.865993 116.407025 
L 121.679256 116.803794 
L 125.74557 119.431199 
L 127.372096 119.868673 
L 129.811885 120.23708 
L 130.625148 120.566427 
L 131.438411 121.115296 
L 132.251673 121.925176 
L 133.064936 123.009288 
L 133.878199 124.352198 
L 135.504725 127.633654 
L 138.757777 134.707743 
L 140.384302 137.631732 
L 142.824091 141.275667 
L 144.450617 143.818904 
L 146.077143 146.892675 
L 147.703668 150.562114 
L 150.143457 156.801831 
L 153.396509 165.708462 
L 156.64956 175.296854 
L 161.529137 190.011057 
L 163.968926 196.321842 
L 166.408715 201.879677 
L 173.728081 217.942475 
L 183.487235 240.173485 
L 186.740287 246.603847 
L 191.619864 256.089264 
L 201.379019 275.742911 
L 203.818808 279.767673 
L 205.445334 282.063833 
L 207.071859 284.005191 
L 208.698385 285.571443 
L 210.324911 286.766564 
L 211.951437 287.621064 
L 213.577962 288.188677 
L 215.204488 288.539034 
L 217.644277 288.825092 
L 221.710591 289.257804 
L 224.15038 289.791097 
L 226.590169 290.640265 
L 229.84322 292.144353 
L 232.283009 293.206133 
L 233.909535 293.64739 
L 235.53606 293.729253 
L 236.349323 293.609449 
L 237.975849 293.034216 
L 239.602375 292.044331 
L 241.228901 290.724381 
L 243.668689 288.356064 
L 250.988055 280.585597 
L 261.560473 269.316483 
L 266.44005 263.715455 
L 273.759416 255.23544 
L 277.012468 251.884409 
L 279.452256 249.641389 
L 282.705308 246.991931 
L 285.95836 244.657352 
L 290.024674 242.03409 
L 300.597092 235.415382 
L 308.72972 230.005182 
L 311.169509 228.790237 
L 312.796035 228.221202 
L 314.422561 227.883739 
L 316.049086 227.797351 
L 317.675612 227.968995 
L 319.302138 228.394464 
L 320.928664 229.060133 
L 322.55519 229.944392 
L 324.994978 231.616592 
L 327.434767 233.595927 
L 333.127607 238.669615 
L 336.380659 241.43831 
L 339.63371 243.901801 
L 342.073499 245.480256 
L 344.513288 246.77637 
L 346.953076 247.746077 
L 348.579602 248.194302 
L 350.206128 248.477768 
L 351.832654 248.596923 
L 353.459179 248.557709 
L 355.898968 248.227632 
L 358.338757 247.622864 
L 361.591808 246.510501 
L 373.790752 241.890236 
L 377.043803 241.085043 
L 379.483592 240.677763 
L 381.923381 240.444086 
L 385.176432 240.388905 
L 388.429484 240.586509 
L 392.495798 241.091874 
L 407.947793 243.358535 
L 412.014107 243.618817 
L 416.080422 243.684184 
L 420.959999 243.54949 
L 429.092628 243.045731 
L 438.03852 242.527757 
L 444.544623 242.362052 
L 451.863989 242.401003 
L 481.954716 242.877171 
L 481.954716 242.877171 
" clip-path="url(#p9a7279e43b)" style="fill: none; stroke: #dd8452; stroke-width: 1.75; stroke-linecap: round"/>
   </g>
   <g id="patch_3">
    <path d="M 55.845625 333.36 
L 55.845625 7.2 
" style="fill: none"/>
   </g>
   <g id="patch_4">
    <path d="M 502.245625 333.36 
L 502.245625 7.2 
" style="fill: none"/>
   </g>
   <g id="patch_5">
    <path d="M 55.845625 333.36 
L 502.245625 333.36 
" style="fill: none"/>
   </g>
   <g id="patch_6">
    <path d="M 55.845625 7.2 
L 502.245625 7.2 
" style="fill: none"/>
   </g>
   <g id="legend_1">
    <g id="line2d_25">
     <path d="M 441.85 22.49625 
L 453.85 22.49625 
L 465.85 22.49625 
" style="fill: none; stroke: #4c72b0; stroke-width: 1.75; stroke-linecap: round"/>
    </g>
    <g id="text_14">
     <!-- mx -->
     <g style="fill: #262626" transform="translate(475.45 26.69625)scale(0.12 -0.12)">
      <defs>
       <path id="LiberationSans-6d" d="M 2400 0 
L 2400 2144 
Q 2400 2391 2369 2556 
Q 2338 2722 2264 2823 
Q 2191 2925 2072 2967 
Q 1953 3009 1781 3009 
Q 1603 3009 1459 2939 
Q 1316 2869 1214 2736 
Q 1113 2603 1058 2408 
Q 1003 2213 1003 1959 
L 1003 0 
L 444 0 
L 444 2659 
Q 444 2766 442 2883 
Q 441 3000 437 3104 
Q 434 3209 431 3284 
Q 428 3359 425 3381 
L 956 3381 
Q 959 3366 962 3297 
Q 966 3228 970 3139 
Q 975 3050 978 2958 
Q 981 2866 981 2803 
L 991 2803 
Q 1066 2950 1153 3069 
Q 1241 3188 1358 3270 
Q 1475 3353 1626 3398 
Q 1778 3444 1978 3444 
Q 2363 3444 2586 3291 
Q 2809 3138 2897 2803 
L 2906 2803 
Q 2981 2950 3075 3069 
Q 3169 3188 3294 3270 
Q 3419 3353 3575 3398 
Q 3731 3444 3931 3444 
Q 4188 3444 4373 3375 
Q 4559 3306 4678 3162 
Q 4797 3019 4853 2792 
Q 4909 2566 4909 2253 
L 4909 0 
L 4353 0 
L 4353 2144 
Q 4353 2391 4322 2556 
Q 4291 2722 4217 2823 
Q 4144 2925 4025 2967 
Q 3906 3009 3734 3009 
Q 3556 3009 3412 2942 
Q 3269 2875 3167 2744 
Q 3066 2613 3011 2416 
Q 2956 2219 2956 1959 
L 2956 0 
L 2400 0 
z
" transform="scale(0.015625)"/>
       <path id="LiberationSans-78" d="M 2503 0 
L 1594 1388 
L 678 0 
L 72 0 
L 1275 1738 
L 128 3381 
L 750 3381 
L 1594 2066 
L 2431 3381 
L 3059 3381 
L 1913 1744 
L 3131 0 
L 2503 0 
z
" transform="scale(0.015625)"/>
      </defs>
      <use xlink:href="#LiberationSans-6d"/>
      <use xlink:href="#LiberationSans-78" x="83.300781"/>
     </g>
    </g>
    <g id="line2d_26">
     <path d="M 441.85 39.6825 
L 453.85 39.6825 
L 465.85 39.6825 
" style="fill: none; stroke: #dd8452; stroke-width: 1.75; stroke-linecap: round"/>
    </g>
    <g id="text_15">
     <!-- my -->
     <g style="fill: #262626" transform="translate(475.45 43.8825)scale(0.12 -0.12)">
      <defs>
       <path id="LiberationSans-79" d="M 1888 0 
Q 1769 -306 1645 -551 
Q 1522 -797 1369 -970 
Q 1216 -1144 1028 -1236 
Q 841 -1328 597 -1328 
Q 491 -1328 400 -1322 
Q 309 -1316 209 -1294 
L 209 -872 
Q 269 -881 344 -886 
Q 419 -891 472 -891 
Q 719 -891 931 -706 
Q 1144 -522 1303 -119 
L 1356 16 
L 16 3381 
L 616 3381 
L 1328 1513 
Q 1359 1428 1407 1287 
Q 1456 1147 1504 1006 
Q 1553 866 1590 753 
Q 1628 641 1634 613 
Q 1644 647 1680 748 
Q 1716 850 1761 975 
Q 1806 1100 1853 1228 
Q 1900 1356 1931 1450 
L 2594 3381 
L 3188 3381 
L 1888 0 
z
" transform="scale(0.015625)"/>
      </defs>
      <use xlink:href="#LiberationSans-6d"/>
      <use xlink:href="#LiberationSans-79" x="83.300781"/>
     </g>
    </g>
   </g>
  </g>
 </g>
 <defs>
  <clipPath id="p9a7279e43b">
   <rect x="55.845625" y="7.2" width="446.4" height="326.16"/>
  </clipPath>
 </defs>
</svg>
