<?xml version="1.0" encoding="utf-8" standalone="no"?>
<!DOCTYPE svg PUBLIC "-//W3C//DTD SVG 1.1//EN"
  "http://www.w3.org/Graphics/SVG/1.1/DTD/svg11.dtd">
<svg xmlns:xlink="http://www.w3.org/1999/xlink" width="509.445625pt" height="382.14125pt" viewBox="0 0 509.445625 382.14125" xmlns="http://www.w3.org/2000/svg" version="1.1">
 <metadata>
  <rdf:RDF xmlns:dc="http://purl.org/dc/elements/1.1/" xmlns:cc="http://creativecommons.org/ns#" xmlns:rdf="http://www.w3.org/1999/02/22-rdf-syntax-ns#">
   <cc:Work>
    <dc:type rdf:resource="http://purl.org/dc/dcmitype/StillImage"/>
    <dc:date>2023-10-23T16:17:54.738353</dc:date>
    <dc:format>image/svg+xml</dc:format>
    <dc:creator>
     <cc:Agent>
      <dc:title>Matplotlib v3.8.0, https://matplotlib.org/</dc:title>
     </cc:Agent>
    </dc:creator>
   </cc:Work>
  </rdf:RDF>
 </metadata>
 <defs>
  <style type="text/css">*{stroke-linejoin: round; stroke-linecap: butt}</style>
 </defs>
 <g id="figure_1">
  <g id="patch_1">
   <path d="M 0 382.14125 
L 509.445625 382.14125 
L 509.445625 0 
L 0 0 
z
" style="fill: #ffffff"/>
  </g>
  <g id="axes_1">
   <g id="patch_2">
    <path d="M 55.845625 339.84 
L 502.245625 339.84 
L 502.245625 7.2 
L 55.845625 7.2 
z
" style="fill: #eaeaf2"/>
   </g>
   <g id="matplotlib.axis_1">
    <g id="xtick_1">
     <g id="line2d_1">
      <path d="M 75.323271 339.84 
L 75.323271 7.2 
" clip-path="url(#p63b8616135)" style="fill: none; stroke: #ffffff; stroke-linecap: round"/>
     </g>
     <g id="line2d_2"/>
     <g id="text_1">
      <!-- 0.0 -->
      <g style="fill: #262626" transform="translate(66.288271 354.260938) scale(0.13 -0.13)">
       <defs>
        <path id="LiberationSans-30" d="M 3309 2203 
Q 3309 1569 3189 1136 
Q 3069 703 2861 436 
Q 2653 169 2372 53 
Q 2091 -63 1772 -63 
Q 1450 -63 1172 53 
Q 894 169 689 434 
Q 484 700 367 1133 
Q 250 1566 250 2203 
Q 250 2869 367 3305 
Q 484 3741 690 4000 
Q 897 4259 1178 4364 
Q 1459 4469 1791 4469 
Q 2106 4469 2382 4364 
Q 2659 4259 2865 4000 
Q 3072 3741 3190 3305 
Q 3309 2869 3309 2203 
z
M 2738 2203 
Q 2738 2728 2675 3076 
Q 2613 3425 2491 3633 
Q 2369 3841 2192 3927 
Q 2016 4013 1791 4013 
Q 1553 4013 1372 3925 
Q 1191 3838 1067 3630 
Q 944 3422 881 3073 
Q 819 2725 819 2203 
Q 819 1697 883 1350 
Q 947 1003 1070 792 
Q 1194 581 1372 489 
Q 1550 397 1778 397 
Q 2000 397 2178 489 
Q 2356 581 2479 792 
Q 2603 1003 2670 1350 
Q 2738 1697 2738 2203 
z
" transform="scale(0.015625)"/>
        <path id="LiberationSans-2e" d="M 584 0 
L 584 684 
L 1194 684 
L 1194 0 
L 584 0 
z
" transform="scale(0.015625)"/>
       </defs>
       <use xlink:href="#LiberationSans-30"/>
       <use xlink:href="#LiberationSans-2e" x="55.615234"/>
       <use xlink:href="#LiberationSans-30" x="83.398438"/>
      </g>
     </g>
    </g>
    <g id="xtick_2">
     <g id="line2d_3">
      <path d="M 126.152202 339.84 
L 126.152202 7.2 
" clip-path="url(#p63b8616135)" style="fill: none; stroke: #ffffff; stroke-linecap: round"/>
     </g>
     <g id="line2d_4"/>
     <g id="text_2">
      <!-- 2.5 -->
      <g style="fill: #262626" transform="translate(117.117202 354.260938) scale(0.13 -0.13)">
       <defs>
        <path id="LiberationSans-32" d="M 322 0 
L 322 397 
Q 481 763 711 1042 
Q 941 1322 1194 1548 
Q 1447 1775 1695 1969 
Q 1944 2163 2144 2356 
Q 2344 2550 2467 2762 
Q 2591 2975 2591 3244 
Q 2591 3431 2534 3573 
Q 2478 3716 2372 3812 
Q 2266 3909 2117 3957 
Q 1969 4006 1788 4006 
Q 1619 4006 1470 3959 
Q 1322 3913 1206 3819 
Q 1091 3725 1017 3586 
Q 944 3447 922 3263 
L 347 3316 
Q 375 3553 478 3762 
Q 581 3972 762 4130 
Q 944 4288 1198 4378 
Q 1453 4469 1788 4469 
Q 2116 4469 2372 4391 
Q 2628 4313 2804 4159 
Q 2981 4006 3075 3781 
Q 3169 3556 3169 3263 
Q 3169 3041 3089 2841 
Q 3009 2641 2876 2459 
Q 2744 2278 2569 2109 
Q 2394 1941 2203 1780 
Q 2013 1619 1819 1461 
Q 1625 1303 1454 1143 
Q 1284 984 1150 820 
Q 1016 656 941 478 
L 3238 478 
L 3238 0 
L 322 0 
z
" transform="scale(0.015625)"/>
        <path id="LiberationSans-35" d="M 3291 1434 
Q 3291 1103 3191 828 
Q 3091 553 2894 354 
Q 2697 156 2405 46 
Q 2113 -63 1728 -63 
Q 1381 -63 1123 18 
Q 866 100 687 242 
Q 509 384 404 575 
Q 300 766 256 984 
L 825 1050 
Q 859 925 921 808 
Q 984 691 1092 598 
Q 1200 506 1358 451 
Q 1516 397 1741 397 
Q 1959 397 2137 464 
Q 2316 531 2442 662 
Q 2569 794 2637 984 
Q 2706 1175 2706 1422 
Q 2706 1625 2640 1795 
Q 2575 1966 2453 2089 
Q 2331 2213 2154 2281 
Q 1978 2350 1753 2350 
Q 1613 2350 1494 2325 
Q 1375 2300 1273 2256 
Q 1172 2213 1089 2155 
Q 1006 2097 934 2034 
L 384 2034 
L 531 4403 
L 3034 4403 
L 3034 3925 
L 1044 3925 
L 959 2528 
Q 1109 2644 1334 2726 
Q 1559 2809 1869 2809 
Q 2197 2809 2459 2709 
Q 2722 2609 2906 2426 
Q 3091 2244 3191 1991 
Q 3291 1738 3291 1434 
z
" transform="scale(0.015625)"/>
       </defs>
       <use xlink:href="#LiberationSans-32"/>
       <use xlink:href="#LiberationSans-2e" x="55.615234"/>
       <use xlink:href="#LiberationSans-35" x="83.398438"/>
      </g>
     </g>
    </g>
    <g id="xtick_3">
     <g id="line2d_5">
      <path d="M 176.981132 339.84 
L 176.981132 7.2 
" clip-path="url(#p63b8616135)" style="fill: none; stroke: #ffffff; stroke-linecap: round"/>
     </g>
     <g id="line2d_6"/>
     <g id="text_3">
      <!-- 5.0 -->
      <g style="fill: #262626" transform="translate(167.946132 354.260938) scale(0.13 -0.13)">
       <use xlink:href="#LiberationSans-35"/>
       <use xlink:href="#LiberationSans-2e" x="55.615234"/>
       <use xlink:href="#LiberationSans-30" x="83.398438"/>
      </g>
     </g>
    </g>
    <g id="xtick_4">
     <g id="line2d_7">
      <path d="M 227.810063 339.84 
L 227.810063 7.2 
" clip-path="url(#p63b8616135)" style="fill: none; stroke: #ffffff; stroke-linecap: round"/>
     </g>
     <g id="line2d_8"/>
     <g id="text_4">
      <!-- 7.5 -->
      <g style="fill: #262626" transform="translate(218.775063 354.260938) scale(0.13 -0.13)">
       <defs>
        <path id="LiberationSans-37" d="M 3238 3947 
Q 2906 3441 2628 2973 
Q 2350 2506 2150 2032 
Q 1950 1559 1839 1061 
Q 1728 563 1728 0 
L 1141 0 
Q 1141 528 1266 1036 
Q 1391 1544 1603 2033 
Q 1816 2522 2097 2994 
Q 2378 3466 2694 3925 
L 328 3925 
L 328 4403 
L 3238 4403 
L 3238 3947 
z
" transform="scale(0.015625)"/>
       </defs>
       <use xlink:href="#LiberationSans-37"/>
       <use xlink:href="#LiberationSans-2e" x="55.615234"/>
       <use xlink:href="#LiberationSans-35" x="83.398438"/>
      </g>
     </g>
    </g>
    <g id="xtick_5">
     <g id="line2d_9">
      <path d="M 278.638994 339.84 
L 278.638994 7.2 
" clip-path="url(#p63b8616135)" style="fill: none; stroke: #ffffff; stroke-linecap: round"/>
     </g>
     <g id="line2d_10"/>
     <g id="text_5">
      <!-- 10.0 -->
      <g style="fill: #262626" transform="translate(265.989384 354.260938) scale(0.13 -0.13)">
       <defs>
        <path id="LiberationSans-31" d="M 488 0 
L 488 478 
L 1609 478 
L 1609 3866 
L 616 3156 
L 616 3688 
L 1656 4403 
L 2175 4403 
L 2175 478 
L 3247 478 
L 3247 0 
L 488 0 
z
" transform="scale(0.015625)"/>
       </defs>
       <use xlink:href="#LiberationSans-31"/>
       <use xlink:href="#LiberationSans-30" x="55.615234"/>
       <use xlink:href="#LiberationSans-2e" x="111.230469"/>
       <use xlink:href="#LiberationSans-30" x="139.013672"/>
      </g>
     </g>
    </g>
    <g id="xtick_6">
     <g id="line2d_11">
      <path d="M 329.467924 339.84 
L 329.467924 7.2 
" clip-path="url(#p63b8616135)" style="fill: none; stroke: #ffffff; stroke-linecap: round"/>
     </g>
     <g id="line2d_12"/>
     <g id="text_6">
      <!-- 12.5 -->
      <g style="fill: #262626" transform="translate(316.818315 354.260938) scale(0.13 -0.13)">
       <use xlink:href="#LiberationSans-31"/>
       <use xlink:href="#LiberationSans-32" x="55.615234"/>
       <use xlink:href="#LiberationSans-2e" x="111.230469"/>
       <use xlink:href="#LiberationSans-35" x="139.013672"/>
      </g>
     </g>
    </g>
    <g id="xtick_7">
     <g id="line2d_13">
      <path d="M 380.296855 339.84 
L 380.296855 7.2 
" clip-path="url(#p63b8616135)" style="fill: none; stroke: #ffffff; stroke-linecap: round"/>
     </g>
     <g id="line2d_14"/>
     <g id="text_7">
      <!-- 15.0 -->
      <g style="fill: #262626" transform="translate(367.647245 354.260938) scale(0.13 -0.13)">
       <use xlink:href="#LiberationSans-31"/>
       <use xlink:href="#LiberationSans-35" x="55.615234"/>
       <use xlink:href="#LiberationSans-2e" x="111.230469"/>
       <use xlink:href="#LiberationSans-30" x="139.013672"/>
      </g>
     </g>
    </g>
    <g id="xtick_8">
     <g id="line2d_15">
      <path d="M 431.125785 339.84 
L 431.125785 7.2 
" clip-path="url(#p63b8616135)" style="fill: none; stroke: #ffffff; stroke-linecap: round"/>
     </g>
     <g id="line2d_16"/>
     <g id="text_8">
      <!-- 17.5 -->
      <g style="fill: #262626" transform="translate(418.476176 354.260938) scale(0.13 -0.13)">
       <use xlink:href="#LiberationSans-31"/>
       <use xlink:href="#LiberationSans-37" x="55.615234"/>
       <use xlink:href="#LiberationSans-2e" x="111.230469"/>
       <use xlink:href="#LiberationSans-35" x="139.013672"/>
      </g>
     </g>
    </g>
    <g id="xtick_9">
     <g id="line2d_17">
      <path d="M 481.954716 339.84 
L 481.954716 7.2 
" clip-path="url(#p63b8616135)" style="fill: none; stroke: #ffffff; stroke-linecap: round"/>
     </g>
     <g id="line2d_18"/>
     <g id="text_9">
      <!-- 20.0 -->
      <g style="fill: #262626" transform="translate(469.305107 354.260938) scale(0.13 -0.13)">
       <use xlink:href="#LiberationSans-32"/>
       <use xlink:href="#LiberationSans-30" x="55.615234"/>
       <use xlink:href="#LiberationSans-2e" x="111.230469"/>
       <use xlink:href="#LiberationSans-30" x="139.013672"/>
      </g>
     </g>
    </g>
    <g id="text_10">
     <!-- t(ns) -->
     <g style="fill: #262626" transform="translate(264.046797 371.82875) scale(0.15 -0.15)">
      <defs>
       <path id="LiberationSans-74" d="M 1731 25 
Q 1603 -9 1470 -29 
Q 1338 -50 1163 -50 
Q 488 -50 488 716 
L 488 2972 
L 97 2972 
L 97 3381 
L 509 3381 
L 675 4138 
L 1050 4138 
L 1050 3381 
L 1675 3381 
L 1675 2972 
L 1050 2972 
L 1050 838 
Q 1050 594 1129 495 
Q 1209 397 1406 397 
Q 1488 397 1564 409 
Q 1641 422 1731 441 
L 1731 25 
z
" transform="scale(0.015625)"/>
       <path id="LiberationSans-28" d="M 397 1663 
Q 397 2097 462 2494 
Q 528 2891 668 3256 
Q 809 3622 1028 3965 
Q 1247 4309 1550 4638 
L 2094 4638 
Q 1800 4309 1586 3964 
Q 1372 3619 1234 3251 
Q 1097 2884 1030 2487 
Q 963 2091 963 1656 
Q 963 1222 1030 825 
Q 1097 428 1234 59 
Q 1372 -309 1586 -653 
Q 1800 -997 2094 -1325 
L 1550 -1325 
Q 1247 -997 1028 -653 
Q 809 -309 668 56 
Q 528 422 462 817 
Q 397 1213 397 1650 
L 397 1663 
z
" transform="scale(0.015625)"/>
       <path id="LiberationSans-6e" d="M 2578 0 
L 2578 2144 
Q 2578 2391 2542 2556 
Q 2506 2722 2425 2823 
Q 2344 2925 2211 2967 
Q 2078 3009 1881 3009 
Q 1681 3009 1520 2939 
Q 1359 2869 1245 2736 
Q 1131 2603 1068 2408 
Q 1006 2213 1006 1959 
L 1006 0 
L 444 0 
L 444 2659 
Q 444 2766 442 2883 
Q 441 3000 437 3104 
Q 434 3209 431 3284 
Q 428 3359 425 3381 
L 956 3381 
Q 959 3366 962 3297 
Q 966 3228 970 3139 
Q 975 3050 978 2958 
Q 981 2866 981 2803 
L 991 2803 
Q 1072 2950 1169 3069 
Q 1266 3188 1394 3270 
Q 1522 3353 1687 3398 
Q 1853 3444 2072 3444 
Q 2353 3444 2556 3375 
Q 2759 3306 2890 3162 
Q 3022 3019 3083 2792 
Q 3144 2566 3144 2253 
L 3144 0 
L 2578 0 
z
" transform="scale(0.015625)"/>
       <path id="LiberationSans-73" d="M 2969 934 
Q 2969 697 2876 511 
Q 2784 325 2609 198 
Q 2434 72 2179 4 
Q 1925 -63 1597 -63 
Q 1303 -63 1067 -17 
Q 831 28 653 128 
Q 475 228 354 392 
Q 234 556 178 794 
L 675 891 
Q 747 619 972 492 
Q 1197 366 1597 366 
Q 1778 366 1929 391 
Q 2081 416 2190 477 
Q 2300 538 2361 639 
Q 2422 741 2422 891 
Q 2422 1044 2350 1142 
Q 2278 1241 2150 1306 
Q 2022 1372 1839 1420 
Q 1656 1469 1438 1528 
Q 1234 1581 1034 1647 
Q 834 1713 673 1820 
Q 513 1928 413 2087 
Q 313 2247 313 2488 
Q 313 2950 642 3192 
Q 972 3434 1603 3434 
Q 2163 3434 2492 3237 
Q 2822 3041 2909 2606 
L 2403 2544 
Q 2375 2675 2300 2764 
Q 2225 2853 2119 2908 
Q 2013 2963 1880 2986 
Q 1747 3009 1603 3009 
Q 1222 3009 1040 2893 
Q 859 2778 859 2544 
Q 859 2406 926 2317 
Q 994 2228 1114 2167 
Q 1234 2106 1403 2061 
Q 1572 2016 1775 1966 
Q 1909 1931 2050 1892 
Q 2191 1853 2323 1798 
Q 2456 1744 2573 1670 
Q 2691 1597 2778 1494 
Q 2866 1391 2917 1253 
Q 2969 1116 2969 934 
z
" transform="scale(0.015625)"/>
       <path id="LiberationSans-29" d="M 1734 1650 
Q 1734 1213 1668 817 
Q 1603 422 1462 56 
Q 1322 -309 1103 -653 
Q 884 -997 581 -1325 
L 38 -1325 
Q 331 -997 545 -653 
Q 759 -309 896 59 
Q 1034 428 1101 825 
Q 1169 1222 1169 1656 
Q 1169 2091 1101 2487 
Q 1034 2884 896 3251 
Q 759 3619 545 3964 
Q 331 4309 38 4638 
L 581 4638 
Q 884 4309 1103 3965 
Q 1322 3622 1462 3256 
Q 1603 2891 1668 2494 
Q 1734 2097 1734 1663 
L 1734 1650 
z
" transform="scale(0.015625)"/>
      </defs>
      <use xlink:href="#LiberationSans-74"/>
      <use xlink:href="#LiberationSans-28" x="27.783203"/>
      <use xlink:href="#LiberationSans-6e" x="61.083984"/>
      <use xlink:href="#LiberationSans-73" x="116.699219"/>
      <use xlink:href="#LiberationSans-29" x="166.699219"/>
     </g>
    </g>
   </g>
   <g id="matplotlib.axis_2">
    <g id="ytick_1">
     <g id="line2d_19">
      <path d="M 55.845625 327.399383 
L 502.245625 327.399383 
" clip-path="url(#p63b8616135)" style="fill: none; stroke: #ffffff; stroke-linecap: round"/>
     </g>
     <g id="line2d_20"/>
     <g id="text_11">
      <!-- −0.4 -->
      <g style="fill: #262626" transform="translate(25.182813 332.109852) scale(0.13 -0.13)">
       <defs>
        <path id="LiberationSans-2212" d="M 316 1900 
L 316 2356 
L 3425 2356 
L 3425 1900 
L 316 1900 
z
" transform="scale(0.015625)"/>
        <path id="LiberationSans-34" d="M 2753 997 
L 2753 0 
L 2222 0 
L 2222 997 
L 147 997 
L 147 1434 
L 2163 4403 
L 2753 4403 
L 2753 1441 
L 3372 1441 
L 3372 997 
L 2753 997 
z
M 2222 3769 
Q 2216 3753 2191 3708 
Q 2166 3663 2134 3606 
Q 2103 3550 2070 3492 
Q 2038 3434 2013 3397 
L 884 1734 
Q 869 1709 839 1668 
Q 809 1628 778 1586 
Q 747 1544 715 1503 
Q 684 1463 666 1441 
L 2222 1441 
L 2222 3769 
z
" transform="scale(0.015625)"/>
       </defs>
       <use xlink:href="#LiberationSans-2212"/>
       <use xlink:href="#LiberationSans-30" x="58.398438"/>
       <use xlink:href="#LiberationSans-2e" x="114.013672"/>
       <use xlink:href="#LiberationSans-34" x="141.796875"/>
      </g>
     </g>
    </g>
    <g id="ytick_2">
     <g id="line2d_21">
      <path d="M 55.845625 255.589437 
L 502.245625 255.589437 
" clip-path="url(#p63b8616135)" style="fill: none; stroke: #ffffff; stroke-linecap: round"/>
     </g>
     <g id="line2d_22"/>
     <g id="text_12">
      <!-- −0.2 -->
      <g style="fill: #262626" transform="translate(25.182813 260.299906) scale(0.13 -0.13)">
       <use xlink:href="#LiberationSans-2212"/>
       <use xlink:href="#LiberationSans-30" x="58.398438"/>
       <use xlink:href="#LiberationSans-2e" x="114.013672"/>
       <use xlink:href="#LiberationSans-32" x="141.796875"/>
      </g>
     </g>
    </g>
    <g id="ytick_3">
     <g id="line2d_23">
      <path d="M 55.845625 183.779491 
L 502.245625 183.779491 
" clip-path="url(#p63b8616135)" style="fill: none; stroke: #ffffff; stroke-linecap: round"/>
     </g>
     <g id="line2d_24"/>
     <g id="text_13">
      <!-- 0.0 -->
      <g style="fill: #262626" transform="translate(32.775625 188.489959) scale(0.13 -0.13)">
       <use xlink:href="#LiberationSans-30"/>
       <use xlink:href="#LiberationSans-2e" x="55.615234"/>
       <use xlink:href="#LiberationSans-30" x="83.398438"/>
      </g>
     </g>
    </g>
    <g id="ytick_4">
     <g id="line2d_25">
      <path d="M 55.845625 111.969545 
L 502.245625 111.969545 
" clip-path="url(#p63b8616135)" style="fill: none; stroke: #ffffff; stroke-linecap: round"/>
     </g>
     <g id="line2d_26"/>
     <g id="text_14">
      <!-- 0.2 -->
      <g style="fill: #262626" transform="translate(32.775625 116.680013) scale(0.13 -0.13)">
       <use xlink:href="#LiberationSans-30"/>
       <use xlink:href="#LiberationSans-2e" x="55.615234"/>
       <use xlink:href="#LiberationSans-32" x="83.398438"/>
      </g>
     </g>
    </g>
    <g id="ytick_5">
     <g id="line2d_27">
      <path d="M 55.845625 40.159598 
L 502.245625 40.159598 
" clip-path="url(#p63b8616135)" style="fill: none; stroke: #ffffff; stroke-linecap: round"/>
     </g>
     <g id="line2d_28"/>
     <g id="text_15">
      <!-- 0.4 -->
      <g style="fill: #262626" transform="translate(32.775625 44.870067) scale(0.13 -0.13)">
       <use xlink:href="#LiberationSans-30"/>
       <use xlink:href="#LiberationSans-2e" x="55.615234"/>
       <use xlink:href="#LiberationSans-34" x="83.398438"/>
      </g>
     </g>
    </g>
    <g id="text_16">
     <!-- value -->
     <g style="fill: #262626" transform="translate(18.070312 191.448516) rotate(-90) scale(0.15 -0.15)">
      <defs>
       <path id="LiberationSans-76" d="M 1916 0 
L 1250 0 
L 22 3381 
L 622 3381 
L 1366 1181 
Q 1388 1113 1417 1014 
Q 1447 916 1478 809 
Q 1509 703 1536 604 
Q 1563 506 1581 441 
Q 1600 506 1629 604 
Q 1659 703 1690 806 
Q 1722 909 1755 1007 
Q 1788 1106 1813 1175 
L 2581 3381 
L 3178 3381 
L 1916 0 
z
" transform="scale(0.015625)"/>
       <path id="LiberationSans-61" d="M 1294 -63 
Q 784 -63 528 206 
Q 272 475 272 944 
Q 272 1278 398 1492 
Q 525 1706 729 1828 
Q 934 1950 1196 1997 
Q 1459 2044 1731 2050 
L 2491 2063 
L 2491 2247 
Q 2491 2456 2447 2603 
Q 2403 2750 2312 2840 
Q 2222 2931 2086 2973 
Q 1950 3016 1766 3016 
Q 1603 3016 1472 2992 
Q 1341 2969 1244 2908 
Q 1147 2847 1087 2742 
Q 1028 2638 1009 2478 
L 422 2531 
Q 453 2731 540 2898 
Q 628 3066 789 3187 
Q 950 3309 1192 3376 
Q 1434 3444 1778 3444 
Q 2416 3444 2737 3151 
Q 3059 2859 3059 2306 
L 3059 850 
Q 3059 600 3125 473 
Q 3191 347 3375 347 
Q 3422 347 3469 353 
Q 3516 359 3559 369 
L 3559 19 
Q 3453 -6 3348 -18 
Q 3244 -31 3125 -31 
Q 2966 -31 2852 11 
Q 2738 53 2666 139 
Q 2594 225 2556 351 
Q 2519 478 2509 647 
L 2491 647 
Q 2400 484 2292 353 
Q 2184 222 2040 130 
Q 1897 38 1714 -12 
Q 1531 -63 1294 -63 
z
M 1422 359 
Q 1691 359 1892 457 
Q 2094 556 2226 709 
Q 2359 863 2425 1044 
Q 2491 1225 2491 1391 
L 2491 1669 
L 1875 1656 
Q 1669 1653 1483 1626 
Q 1297 1600 1156 1522 
Q 1016 1444 933 1303 
Q 850 1163 850 934 
Q 850 659 998 509 
Q 1147 359 1422 359 
z
" transform="scale(0.015625)"/>
       <path id="LiberationSans-6c" d="M 431 0 
L 431 4638 
L 994 4638 
L 994 0 
L 431 0 
z
" transform="scale(0.015625)"/>
       <path id="LiberationSans-75" d="M 981 3381 
L 981 1238 
Q 981 991 1017 825 
Q 1053 659 1134 557 
Q 1216 456 1348 414 
Q 1481 372 1678 372 
Q 1878 372 2039 442 
Q 2200 513 2314 645 
Q 2428 778 2490 973 
Q 2553 1169 2553 1422 
L 2553 3381 
L 3116 3381 
L 3116 722 
Q 3116 616 3117 498 
Q 3119 381 3122 276 
Q 3125 172 3128 97 
Q 3131 22 3134 0 
L 2603 0 
Q 2600 16 2597 84 
Q 2594 153 2589 242 
Q 2584 331 2581 423 
Q 2578 516 2578 578 
L 2569 578 
Q 2488 431 2391 312 
Q 2294 194 2166 111 
Q 2038 28 1872 -17 
Q 1706 -63 1488 -63 
Q 1206 -63 1003 6 
Q 800 75 669 219 
Q 538 363 477 588 
Q 416 813 416 1128 
L 416 3381 
L 981 3381 
z
" transform="scale(0.015625)"/>
       <path id="LiberationSans-65" d="M 863 1572 
Q 863 1306 917 1082 
Q 972 859 1086 698 
Q 1200 538 1378 448 
Q 1556 359 1806 359 
Q 2172 359 2392 506 
Q 2613 653 2691 878 
L 3184 738 
Q 3131 597 3036 455 
Q 2941 313 2781 198 
Q 2622 84 2383 10 
Q 2144 -63 1806 -63 
Q 1056 -63 664 384 
Q 272 831 272 1713 
Q 272 2188 390 2517 
Q 509 2847 715 3053 
Q 922 3259 1197 3351 
Q 1472 3444 1784 3444 
Q 2209 3444 2495 3306 
Q 2781 3169 2954 2926 
Q 3128 2684 3201 2356 
Q 3275 2028 3275 1647 
L 3275 1572 
L 863 1572 
z
M 2694 2003 
Q 2647 2538 2422 2783 
Q 2197 3028 1775 3028 
Q 1634 3028 1479 2983 
Q 1325 2938 1194 2822 
Q 1063 2706 972 2507 
Q 881 2309 869 2003 
L 2694 2003 
z
" transform="scale(0.015625)"/>
      </defs>
      <use xlink:href="#LiberationSans-76"/>
      <use xlink:href="#LiberationSans-61" x="50"/>
      <use xlink:href="#LiberationSans-6c" x="105.615234"/>
      <use xlink:href="#LiberationSans-75" x="127.832031"/>
      <use xlink:href="#LiberationSans-65" x="183.447266"/>
     </g>
    </g>
   </g>
   <g id="line2d_29">
    <path d="M 76.136534 33.678812 
L 76.949797 30.581899 
L 77.76306 30.930367 
L 78.576323 74.105694 
L 79.389586 91.533366 
L 80.202849 115.530632 
L 81.016111 154.220005 
L 83.4559 245.928461 
L 84.269163 269.816293 
L 85.895689 310.288233 
L 86.708952 317.766112 
L 87.522215 322.97615 
L 88.335477 324.72 
L 89.962003 304.080766 
L 90.775266 286.858579 
L 92.401792 241.999409 
L 95.654843 137.454773 
L 96.468106 116.048723 
L 97.281369 97.827312 
L 98.094632 83.613408 
L 98.907895 74.644395 
L 99.721158 70.064627 
L 100.534421 70.733876 
L 101.347684 76.419068 
L 102.160947 86.40008 
L 102.974209 100.522126 
L 104.600735 137.212584 
L 107.853787 222.26835 
L 108.66705 239.693248 
L 109.480313 254.193531 
L 110.293575 265.591013 
L 111.106838 272.934053 
L 111.920101 275.868682 
L 112.733364 275.313933 
L 113.546627 270.176976 
L 114.35989 261.852279 
L 115.173153 250.066801 
L 115.986416 235.876103 
L 120.865993 138.210225 
L 121.679256 126.13552 
L 122.492519 117.468883 
L 123.305782 111.47113 
L 124.119045 108.921346 
L 124.932307 109.885468 
L 125.74557 113.989897 
L 126.558833 120.90732 
L 128.185359 141.962645 
L 129.811885 169.516981 
L 131.438411 198.30966 
L 132.251673 211.382207 
L 133.064936 222.406707 
L 134.691462 238.93585 
L 135.504725 242.767609 
L 136.317988 244.6233 
L 137.131251 243.832726 
L 137.944514 239.796539 
L 138.757777 234.552657 
L 139.571039 226.306982 
L 141.197565 206.287753 
L 144.450617 162.556656 
L 146.077143 145.540692 
L 146.890405 139.530559 
L 147.703668 136.350748 
L 148.516931 134.430559 
L 149.330194 134.887281 
L 150.143457 138.050202 
L 150.95672 142.311591 
L 151.769983 148.456958 
L 153.396509 165.291739 
L 156.64956 201.925933 
L 157.462823 209.629291 
L 158.276086 215.751736 
L 159.089349 219.902964 
L 159.902612 222.516561 
L 160.715875 223.858338 
L 161.529137 222.819099 
L 162.3424 219.783917 
L 163.155663 215.827268 
L 163.968926 210.690299 
L 164.782189 204.30138 
L 167.221978 181.216307 
L 168.848503 166.995238 
L 169.661766 161.421349 
L 170.475029 157.145778 
L 171.288292 154.019714 
L 172.101555 151.831931 
L 172.914818 151.019851 
L 173.728081 152.168275 
L 174.541344 154.82708 
L 175.354607 158.294265 
L 176.167869 162.448007 
L 176.981132 167.349164 
L 178.607658 179.052368 
L 180.234184 191.049902 
L 181.047447 196.284682 
L 181.86071 200.721268 
L 182.673973 204.362253 
L 183.487235 207.285824 
L 184.300498 209.461153 
L 185.113761 210.575276 
L 185.927024 210.23946 
L 186.740287 208.510749 
L 187.55355 205.830009 
L 188.366813 202.540464 
L 189.993339 194.550701 
L 193.24639 176.186811 
L 194.872916 168.907489 
L 195.686179 166.044872 
L 196.499442 163.781066 
L 197.312705 162.319217 
L 198.125968 161.922083 
L 198.93923 162.700772 
L 199.752493 164.500245 
L 200.565756 167.040123 
L 202.192282 173.504171 
L 206.258596 191.898303 
L 207.885122 197.563709 
L 208.698385 199.642116 
L 209.511648 201.001564 
L 210.324911 201.460605 
L 211.138174 200.939574 
L 211.951437 199.518961 
L 212.7647 197.386835 
L 214.391225 191.766229 
L 218.45754 176.173892 
L 219.270803 173.679511 
L 220.084066 171.647208 
L 220.897328 170.226575 
L 221.710591 169.564269 
L 222.523854 169.742598 
L 223.337117 170.73491 
L 224.15038 172.41711 
L 224.963643 174.61915 
L 226.590169 179.92493 
L 229.029957 188.178976 
L 229.84322 190.570644 
L 230.656483 192.598902 
L 231.469746 194.13484 
L 232.283009 195.050375 
L 233.096272 195.25503 
L 233.909535 194.732488 
L 234.722798 193.549948 
L 235.53606 191.834776 
L 237.162586 187.408743 
L 239.602375 180.279713 
L 240.415638 178.228024 
L 241.228901 176.523896 
L 242.042164 175.28235 
L 242.855426 174.603222 
L 243.668689 174.544547 
L 244.481952 175.102002 
L 245.295215 176.208116 
L 246.108478 177.750818 
L 247.735004 181.62077 
L 250.174792 187.557058 
L 250.988055 189.132463 
L 251.801318 190.333999 
L 252.614581 191.073924 
L 253.427844 191.295758 
L 254.241107 190.98969 
L 255.05437 190.196871 
L 255.867633 189.000096 
L 257.494158 185.831733 
L 259.933947 180.816965 
L 260.74721 179.486278 
L 261.560473 178.478504 
L 262.373736 177.864522 
L 263.186999 177.68678 
L 264.000262 177.949823 
L 264.813524 178.618348 
L 265.626787 179.623975 
L 267.253313 182.279659 
L 269.693102 186.410015 
L 270.506365 187.462695 
L 271.319628 188.226032 
L 272.13289 188.648056 
L 272.946153 188.703392 
L 273.759416 188.398024 
L 274.572679 187.768578 
L 275.385942 186.876267 
L 277.012468 184.618074 
L 278.638994 182.290195 
L 279.452256 181.300375 
L 280.265519 180.518701 
L 281.078782 179.997861 
L 281.892045 179.771094 
L 282.705308 179.847787 
L 283.518571 180.212048 
L 284.331834 180.825102 
L 285.95836 182.561848 
L 288.398148 185.395225 
L 289.211411 186.130231 
L 290.024674 186.668947 
L 290.837937 186.976266 
L 291.6512 187.035401 
L 292.464463 186.849752 
L 293.277726 186.442287 
L 294.904251 185.131641 
L 298.157303 182.111971 
L 298.970566 181.597727 
L 299.783829 181.263227 
L 300.597092 181.128361 
L 301.410354 181.196989 
L 302.223617 181.456788 
L 303.03688 181.880903 
L 304.663406 183.061286 
L 307.103195 184.939471 
L 307.916458 185.408984 
L 308.72972 185.740426 
L 309.542983 185.913152 
L 310.356246 185.919245 
L 311.169509 185.76399 
L 312.796035 185.050429 
L 316.862349 182.577104 
L 317.675612 182.265072 
L 318.488875 182.078001 
L 319.302138 182.025893 
L 320.115401 182.108047 
L 321.741927 182.621882 
L 324.181715 183.874121 
L 325.808241 184.653712 
L 327.434767 185.125298 
L 329.061293 185.172183 
L 330.687818 184.810043 
L 333.127607 183.815764 
L 334.754133 183.155836 
L 336.380659 182.723478 
L 338.007184 182.629198 
L 339.63371 182.877101 
L 342.073499 183.659983 
L 344.513288 184.436046 
L 346.139813 184.698336 
L 347.766339 184.673994 
L 349.392865 184.390252 
L 354.272442 183.14576 
L 355.898968 183.012149 
L 357.525494 183.112087 
L 359.965282 183.584974 
L 363.218334 184.263299 
L 364.84486 184.399761 
L 366.471386 184.345367 
L 368.911174 183.983128 
L 372.164226 183.414403 
L 373.790752 183.281499 
L 375.417277 183.303508 
L 377.857066 183.577874 
L 381.923381 184.128521 
L 384.363169 184.176941 
L 386.802958 183.971846 
L 391.682535 183.465207 
L 394.122324 183.48014 
L 398.188638 183.84775 
L 401.44169 184.049337 
L 403.881479 183.994559 
L 412.014107 183.567979 
L 416.080422 183.793609 
L 420.146736 183.960235 
L 424.213051 183.826521 
L 429.092628 183.633448 
L 433.158943 183.730764 
L 438.851783 183.89885 
L 444.544623 183.739786 
L 449.4242 183.696327 
L 459.996618 183.82181 
L 468.129247 183.728693 
L 478.701664 183.802348 
L 481.954716 183.753011 
L 481.954716 183.753011 
" clip-path="url(#p63b8616135)" style="fill: none; stroke: #4c72b0; stroke-width: 1.75; stroke-linecap: round"/>
   </g>
   <g id="line2d_30">
    <path d="M 76.136534 165.714621 
L 76.949797 114.859543 
L 77.76306 89.304359 
L 78.576323 82.442948 
L 79.389586 41.268105 
L 80.202849 38.495557 
L 81.016111 34.84509 
L 81.829374 22.32 
L 82.642637 36.001161 
L 84.269163 57.809477 
L 85.082426 86.31419 
L 85.895689 107.243734 
L 89.962003 247.972623 
L 91.588529 287.212506 
L 92.401792 301.018143 
L 93.215055 307.468141 
L 94.028318 310.372839 
L 94.841581 306.655504 
L 95.654843 297.389089 
L 96.468106 284.658512 
L 98.094632 246.178217 
L 102.160947 132.585487 
L 102.974209 114.064656 
L 103.787472 99.644484 
L 104.600735 88.95139 
L 105.413998 82.843484 
L 106.227261 81.286474 
L 107.040524 84.431342 
L 107.853787 91.771684 
L 108.66705 102.880717 
L 109.480313 117.267306 
L 111.106838 152.350792 
L 113.546627 210.153378 
L 114.35989 226.91402 
L 115.173153 241.322795 
L 115.986416 253.262375 
L 116.799679 261.080293 
L 117.612941 266.190882 
L 118.426204 266.888669 
L 119.239467 264.443539 
L 120.05273 258.424362 
L 120.865993 249.149153 
L 121.679256 237.55879 
L 122.492519 224.047944 
L 125.74557 161.74789 
L 126.558833 147.808594 
L 127.372096 136.259052 
L 128.185359 127.186467 
L 128.998622 120.383195 
L 129.811885 117.095668 
L 130.625148 116.411969 
L 131.438411 119.126955 
L 132.251673 124.311673 
L 133.064936 131.989267 
L 134.691462 153.110626 
L 136.317988 178.195564 
L 137.944514 202.734505 
L 138.757777 213.613791 
L 140.384302 230.364246 
L 141.197565 235.362028 
L 142.010828 237.811431 
L 142.824091 238.861192 
L 143.637354 236.506098 
L 144.450617 232.42794 
L 145.26388 226.810916 
L 146.890405 209.272654 
L 150.95672 160.398692 
L 151.769983 152.495258 
L 152.583246 146.217931 
L 153.396509 142.350937 
L 154.209771 140.035521 
L 155.023034 139.313627 
L 155.836297 141.366138 
L 156.64956 145.004749 
L 157.462823 149.738988 
L 158.276086 156.199684 
L 159.902612 172.406242 
L 162.3424 197.772111 
L 163.155663 205.035777 
L 163.968926 210.867896 
L 164.782189 215.091307 
L 165.595452 217.956904 
L 166.408715 219.740204 
L 167.221978 219.639523 
L 168.035241 217.409026 
L 168.848503 214.034322 
L 169.661766 209.860125 
L 170.475029 204.716988 
L 172.101555 191.826203 
L 174.541344 171.67701 
L 175.354607 166.28343 
L 176.167869 161.929224 
L 176.981132 158.530861 
L 177.794395 155.957565 
L 178.607658 154.362774 
L 179.420921 154.290808 
L 180.234184 155.890017 
L 181.047447 158.627559 
L 181.86071 162.042746 
L 182.673973 166.027478 
L 184.300498 175.667803 
L 186.740287 191.402677 
L 187.55355 195.861966 
L 188.366813 199.681808 
L 189.180076 202.884523 
L 189.993339 205.471425 
L 190.806601 207.29531 
L 191.619864 208.03943 
L 192.433127 207.471246 
L 193.24639 205.717314 
L 194.059653 203.125118 
L 195.686179 196.397697 
L 197.312705 188.311899 
L 199.752493 176.107991 
L 201.379019 169.645945 
L 202.192282 167.130893 
L 203.005545 165.253724 
L 203.818808 164.229415 
L 204.632071 164.240738 
L 205.445334 165.296476 
L 206.258596 167.221501 
L 207.071859 169.780428 
L 208.698385 176.070629 
L 211.951437 189.784911 
L 213.577962 195.368309 
L 214.391225 197.487917 
L 215.204488 198.963011 
L 216.017751 199.628475 
L 216.831014 199.390083 
L 217.644277 198.282404 
L 218.45754 196.450242 
L 219.270803 194.080398 
L 220.897328 188.401668 
L 223.337117 179.487225 
L 224.963643 174.546848 
L 225.776906 172.712212 
L 226.590169 171.485601 
L 227.403432 170.990449 
L 228.216694 171.281625 
L 229.029957 172.317662 
L 229.84322 173.97696 
L 231.469746 178.5281 
L 234.722798 188.669422 
L 235.53606 190.752913 
L 236.349323 192.428054 
L 237.162586 193.57259 
L 237.975849 194.085905 
L 238.789112 193.921782 
L 239.602375 193.107684 
L 240.415638 191.737144 
L 241.228901 189.942559 
L 242.855426 185.643898 
L 244.481952 181.236044 
L 245.295215 179.270236 
L 246.108478 177.607992 
L 246.921741 176.357568 
L 247.735004 175.613693 
L 248.548267 175.436269 
L 249.36153 175.831906 
L 250.174792 176.74998 
L 250.988055 178.095295 
L 252.614581 181.587405 
L 255.05437 187.063341 
L 255.867633 188.524298 
L 256.680896 189.64009 
L 257.494158 190.33103 
L 258.307421 190.546895 
L 259.120684 190.279249 
L 259.933947 189.564781 
L 260.74721 188.477709 
L 262.373736 185.584919 
L 264.813524 181.020454 
L 265.626787 179.827752 
L 266.44005 178.939938 
L 267.253313 178.418563 
L 268.066576 178.297602 
L 268.879839 178.576507 
L 269.693102 179.219686 
L 270.506365 180.162842 
L 272.13289 182.609857 
L 273.759416 185.196571 
L 274.572679 186.324366 
L 275.385942 187.239048 
L 276.199205 187.878769 
L 277.012468 188.201091 
L 277.825731 188.18894 
L 278.638994 187.853528 
L 279.452256 187.232659 
L 281.078782 185.382247 
L 283.518571 182.220358 
L 284.331834 181.361819 
L 285.145097 180.705989 
L 285.95836 180.296561 
L 286.771622 180.15816 
L 287.584885 180.293308 
L 288.398148 180.682172 
L 289.211411 181.285395 
L 290.837937 182.910906 
L 293.277726 185.432317 
L 294.090988 186.052359 
L 294.904251 186.483754 
L 295.717514 186.699376 
L 296.530777 186.689379 
L 297.34404 186.462105 
L 298.157303 186.042846 
L 299.783829 184.794374 
L 302.223617 182.680784 
L 303.03688 182.120146 
L 303.850143 181.702155 
L 304.663406 181.453862 
L 305.476669 181.388743 
L 306.289932 181.50563 
L 307.103195 181.78912 
L 308.72972 182.735613 
L 311.982772 184.973081 
L 312.796035 185.359718 
L 313.609298 185.614263 
L 314.422561 185.721761 
L 315.235824 185.679006 
L 316.049086 185.494548 
L 317.675612 184.7859 
L 321.741927 182.589855 
L 322.55519 182.344272 
L 323.368452 182.215641 
L 324.181715 182.20973 
L 325.808241 182.5416 
L 327.434767 183.209774 
L 330.687818 184.664323 
L 332.314344 185.028717 
L 333.94087 185.003532 
L 335.567396 184.623326 
L 340.446973 182.924015 
L 342.073499 182.734064 
L 343.700025 182.862553 
L 345.32655 183.249464 
L 349.392865 184.430233 
L 351.019391 184.623325 
L 352.645916 184.556423 
L 354.272442 184.267391 
L 359.15202 183.171555 
L 360.778545 183.088429 
L 362.405071 183.213063 
L 364.84486 183.665435 
L 368.097911 184.249675 
L 369.724437 184.34266 
L 371.350963 184.264506 
L 373.790752 183.913628 
L 377.043803 183.419426 
L 379.483592 183.328655 
L 381.923381 183.529156 
L 386.802958 184.112859 
L 389.242747 184.126297 
L 392.495798 183.828797 
L 395.74885 183.520393 
L 398.188638 183.489481 
L 401.44169 183.717335 
L 405.508004 184.011692 
L 408.761056 183.957973 
L 416.080422 183.580769 
L 420.146736 183.75985 
L 424.213051 183.938601 
L 428.279365 183.847597 
L 433.972205 183.646805 
L 438.851783 183.780705 
L 443.73136 183.885808 
L 458.370092 183.809953 
L 464.062932 183.827399 
L 473.822087 183.749352 
L 481.954716 183.816205 
L 481.954716 183.816205 
" clip-path="url(#p63b8616135)" style="fill: none; stroke: #dd8452; stroke-width: 1.75; stroke-linecap: round"/>
   </g>
   <g id="line2d_31">
    <path d="M 76.136534 177.25732 
L 76.949797 179.926591 
L 77.76306 169.772761 
L 78.576323 180.964903 
L 79.389586 174.241206 
L 80.202849 173.775916 
L 81.016111 179.825784 
L 81.829374 171.932394 
L 82.642637 178.180105 
L 83.4559 174.755971 
L 84.269163 174.886691 
L 85.082426 176.594652 
L 85.895689 174.470779 
L 86.708952 175.677372 
L 87.522215 175.466669 
L 88.335477 174.48113 
L 89.14874 175.877839 
L 89.962003 174.550962 
L 90.775266 175.095507 
L 91.588529 175.119782 
L 92.401792 174.482783 
L 93.215055 175.176434 
L 94.028318 174.568081 
L 94.841581 174.742489 
L 95.654843 174.743942 
L 96.468106 174.324082 
L 97.281369 174.798498 
L 98.094632 174.187836 
L 98.907895 174.520345 
L 99.721158 174.289526 
L 101.347684 174.252116 
L 102.160947 174.088654 
L 102.974209 174.384038 
L 103.787472 173.821477 
L 104.600735 174.346725 
L 105.413998 173.897913 
L 106.227261 173.973602 
L 107.040524 173.929182 
L 107.853787 174.004031 
L 108.66705 173.767259 
L 110.293575 173.819641 
L 111.106838 173.65585 
L 111.920101 173.877574 
L 112.733364 173.664729 
L 113.546627 173.683156 
L 114.35989 173.562286 
L 115.986416 173.653055 
L 116.799679 173.341146 
L 117.612941 173.637206 
L 118.426204 173.298019 
L 119.239467 173.55371 
L 120.05273 173.256317 
L 120.865993 173.513386 
L 121.679256 173.313462 
L 123.305782 173.408778 
L 124.119045 173.077108 
L 124.932307 173.450697 
L 125.74557 173.020436 
L 126.558833 173.490086 
L 127.372096 173.018414 
L 128.185359 173.223098 
L 128.998622 173.276346 
L 129.811885 173.047807 
L 130.625148 173.27841 
L 131.438411 173.010187 
L 132.251673 173.233534 
L 133.064936 173.011451 
L 133.878199 172.996911 
L 134.691462 173.128851 
L 135.504725 172.963686 
L 136.317988 173.125655 
L 137.944514 172.98105 
L 140.384302 173.01003 
L 141.197565 172.829919 
L 142.010828 172.946708 
L 150.95672 172.769963 
L 151.769983 172.869172 
L 156.64956 172.712983 
L 158.276086 172.811309 
L 159.902612 172.696749 
L 161.529137 172.712175 
L 163.155663 172.705274 
L 164.782189 172.688546 
L 169.661766 172.660408 
L 177.794395 172.614269 
L 179.420921 172.670116 
L 183.487235 172.556622 
L 185.927024 172.630518 
L 189.180076 172.510502 
L 193.24639 172.550009 
L 195.686179 172.495316 
L 198.93923 172.555639 
L 202.192282 172.491389 
L 205.445334 172.525272 
L 208.698385 172.496078 
L 211.951437 172.501569 
L 216.017751 172.516783 
L 262.373736 172.52806 
L 389.242747 172.544694 
L 481.954716 172.544761 
L 481.954716 172.544761 
" clip-path="url(#p63b8616135)" style="fill: none; stroke: #55a868; stroke-width: 1.75; stroke-linecap: round"/>
   </g>
   <g id="patch_3">
    <path d="M 55.845625 339.84 
L 55.845625 7.2 
" style="fill: none"/>
   </g>
   <g id="patch_4">
    <path d="M 502.245625 339.84 
L 502.245625 7.2 
" style="fill: none"/>
   </g>
   <g id="patch_5">
    <path d="M 55.845625 339.84 
L 502.245625 339.84 
" style="fill: none"/>
   </g>
   <g id="patch_6">
    <path d="M 55.845625 7.2 
L 502.245625 7.2 
" style="fill: none"/>
   </g>
   <g id="legend_1">
    <g id="line2d_32">
     <path d="M 441.85 22.49625 
L 453.85 22.49625 
L 465.85 22.49625 
" style="fill: none; stroke: #4c72b0; stroke-width: 1.75; stroke-linecap: round"/>
    </g>
    <g id="text_17">
     <!-- mx -->
     <g style="fill: #262626" transform="translate(475.45 26.69625) scale(0.12 -0.12)">
      <defs>
       <path id="LiberationSans-6d" d="M 2400 0 
L 2400 2144 
Q 2400 2391 2369 2556 
Q 2338 2722 2264 2823 
Q 2191 2925 2072 2967 
Q 1953 3009 1781 3009 
Q 1603 3009 1459 2939 
Q 1316 2869 1214 2736 
Q 1113 2603 1058 2408 
Q 1003 2213 1003 1959 
L 1003 0 
L 444 0 
L 444 2659 
Q 444 2766 442 2883 
Q 441 3000 437 3104 
Q 434 3209 431 3284 
Q 428 3359 425 3381 
L 956 3381 
Q 959 3366 962 3297 
Q 966 3228 970 3139 
Q 975 3050 978 2958 
Q 981 2866 981 2803 
L 991 2803 
Q 1066 2950 1153 3069 
Q 1241 3188 1358 3270 
Q 1475 3353 1626 3398 
Q 1778 3444 1978 3444 
Q 2363 3444 2586 3291 
Q 2809 3138 2897 2803 
L 2906 2803 
Q 2981 2950 3075 3069 
Q 3169 3188 3294 3270 
Q 3419 3353 3575 3398 
Q 3731 3444 3931 3444 
Q 4188 3444 4373 3375 
Q 4559 3306 4678 3162 
Q 4797 3019 4853 2792 
Q 4909 2566 4909 2253 
L 4909 0 
L 4353 0 
L 4353 2144 
Q 4353 2391 4322 2556 
Q 4291 2722 4217 2823 
Q 4144 2925 4025 2967 
Q 3906 3009 3734 3009 
Q 3556 3009 3412 2942 
Q 3269 2875 3167 2744 
Q 3066 2613 3011 2416 
Q 2956 2219 2956 1959 
L 2956 0 
L 2400 0 
z
" transform="scale(0.015625)"/>
       <path id="LiberationSans-78" d="M 2503 0 
L 1594 1388 
L 678 0 
L 72 0 
L 1275 1738 
L 128 3381 
L 750 3381 
L 1594 2066 
L 2431 3381 
L 3059 3381 
L 1913 1744 
L 3131 0 
L 2503 0 
z
" transform="scale(0.015625)"/>
      </defs>
      <use xlink:href="#LiberationSans-6d"/>
      <use xlink:href="#LiberationSans-78" x="83.300781"/>
     </g>
    </g>
    <g id="line2d_33">
     <path d="M 441.85 39.6825 
L 453.85 39.6825 
L 465.85 39.6825 
" style="fill: none; stroke: #dd8452; stroke-width: 1.75; stroke-linecap: round"/>
    </g>
    <g id="text_18">
     <!-- my -->
     <g style="fill: #262626" transform="translate(475.45 43.8825) scale(0.12 -0.12)">
      <defs>
       <path id="LiberationSans-79" d="M 1888 0 
Q 1769 -306 1645 -551 
Q 1522 -797 1369 -970 
Q 1216 -1144 1028 -1236 
Q 841 -1328 597 -1328 
Q 491 -1328 400 -1322 
Q 309 -1316 209 -1294 
L 209 -872 
Q 269 -881 344 -886 
Q 419 -891 472 -891 
Q 719 -891 931 -706 
Q 1144 -522 1303 -119 
L 1356 16 
L 16 3381 
L 616 3381 
L 1328 1513 
Q 1359 1428 1407 1287 
Q 1456 1147 1504 1006 
Q 1553 866 1590 753 
Q 1628 641 1634 613 
Q 1644 647 1680 748 
Q 1716 850 1761 975 
Q 1806 1100 1853 1228 
Q 1900 1356 1931 1450 
L 2594 3381 
L 3188 3381 
L 1888 0 
z
" transform="scale(0.015625)"/>
      </defs>
      <use xlink:href="#LiberationSans-6d"/>
      <use xlink:href="#LiberationSans-79" x="83.300781"/>
     </g>
    </g>
    <g id="line2d_34">
     <path d="M 441.85 56.86875 
L 453.85 56.86875 
L 465.85 56.86875 
" style="fill: none; stroke: #55a868; stroke-width: 1.75; stroke-linecap: round"/>
    </g>
    <g id="text_19">
     <!-- mz -->
     <g style="fill: #262626" transform="translate(475.45 61.06875) scale(0.12 -0.12)">
      <defs>
       <path id="LiberationSans-7a" d="M 153 0 
L 153 428 
L 2219 2947 
L 278 2947 
L 278 3381 
L 2853 3381 
L 2853 2953 
L 784 434 
L 2969 434 
L 2969 0 
L 153 0 
z
" transform="scale(0.015625)"/>
      </defs>
      <use xlink:href="#LiberationSans-6d"/>
      <use xlink:href="#LiberationSans-7a" x="83.300781"/>
     </g>
    </g>
   </g>
  </g>
 </g>
 <defs>
  <clipPath id="p63b8616135">
   <rect x="55.845625" y="7.2" width="446.4" height="332.64"/>
  </clipPath>
 </defs>
</svg>
